PathFileType	4	(X/Y/Z)	 0.06m3min.trc
DataRate	CameraRate	NumFrames	NumMarkers	Units	OrigDataRate	OrigDataStartFrame	OrigNumFrames
200	200	11	34	m	200	751	1000
Frame#	Time	LSH			RSH			MAN			RASI			LASI			HIPR			HIPL			RPSI			LPSI			COX			RTHI1			RTHI2			RTHI3			RTHI4			RSHA1			RSHA2			RSHA3			RSHA4			RHEEL			RMET5			RMET1			RTOE			LTHI1			LTHI2			LTHI3			LTHI4			LSHA1			LSHA2			LSHA3			LSHA4			LHEEL			LMET5			LMET1			LTOE			
		X1	Y1	Z1	X2	Y2	Z2	X3	Y3	Z3	X4	Y4	Z4	X5	Y5	Z5	X6	Y6	Z6	X7	Y7	Z7	X8	Y8	Z8	X9	Y9	Z9	X10	Y10	Z10	X11	Y11	Z11	X12	Y12	Z12	X13	Y13	Z13	X14	Y14	Z14	X15	Y15	Z15	X16	Y16	Z16	X17	Y17	Z17	X18	Y18	Z18	X19	Y19	Z19	X20	Y20	Z20	X21	Y21	Z21	X22	Y22	Z22	X23	Y23	Z23	X24	Y24	Z24	X25	Y25	Z25	X26	Y26	Z26	X27	Y27	Z27	X28	Y28	Z28	X29	Y29	Z29	X30	Y30	Z30	X31	Y31	Z31	X32	Y32	Z32	X33	Y33	Z33	X34	Y34	Z34	
751	3.7550	-0.181722	1.413636	-0.688380	-0.214302	1.384100	-0.349890	-0.127001	1.367678	-0.514168	-0.093434	0.969676	-0.395623	-0.081032	0.962251	-0.628753	-0.151667	1.013012	-0.374718	-0.138401	1.002045	-0.657327	-0.253192	0.988081	-0.462189	-0.245026	0.985440	-0.575599	-0.253924	0.990215	-0.519088	-0.189232	0.759903	-0.348030	-0.165575	0.704974	-0.344015	-0.105905	0.727225	-0.333381	-0.121941	0.786599	-0.335095	-0.218057	0.348035	-0.346755	-0.232536	0.308622	-0.357226	-0.173593	0.294417	-0.356440	-0.163125	0.333049	-0.350592	-0.312701	0.121715	-0.412703	-0.181540	0.033841	-0.350336	-0.153089	0.036997	-0.415805	-0.127199	0.027724	-0.409641	-0.150457	0.764507	-0.687283	-0.130634	0.706406	-0.680320	-0.069290	0.723045	-0.665927	-0.081623	0.781317	-0.671866	-0.207893	0.350723	-0.677249	-0.227956	0.315522	-0.676030	-0.171532	0.291517	-0.661827	-0.158053	0.333520	-0.665198	-0.337570	0.111370	-0.634787	-0.199373	0.037887	-0.676961	-0.169223	0.036434	-0.609146	-0.145539	0.028063	-0.611420	
752	3.7600	-0.182415	1.418849	-0.687965	-0.215074	1.389419	-0.350366	-0.127882	1.373040	-0.514162	-0.092805	0.974869	-0.395996	-0.080344	0.967207	-0.628605	-0.150781	1.018729	-0.375093	-0.137481	1.007569	-0.657155	-0.252278	0.993625	-0.462517	-0.244127	0.990786	-0.575929	-0.253061	0.995529	-0.519426	-0.189248	0.764927	-0.347301	-0.165803	0.710119	-0.343480	-0.105977	0.732059	-0.333211	-0.121712	0.791511	-0.335027	-0.218840	0.351967	-0.346127	-0.232915	0.312406	-0.356477	-0.173834	0.298719	-0.355239	-0.163736	0.337486	-0.349486	-0.310360	0.124910	-0.411906	-0.180778	0.034186	-0.350252	-0.152733	0.037046	-0.415608	-0.127246	0.027764	-0.409564	-0.149910	0.769464	-0.687725	-0.130296	0.711300	-0.680740	-0.068968	0.727725	-0.666069	-0.081078	0.786038	-0.672007	-0.208337	0.354633	-0.677935	-0.228041	0.319228	-0.676640	-0.171310	0.295789	-0.662687	-0.158287	0.337930	-0.666118	-0.335235	0.114674	-0.635042	-0.198386	0.038502	-0.676928	-0.168892	0.036470	-0.608970	-0.145536	0.028121	-0.611375	
753	3.7650	-0.183092	1.423956	-0.687519	-0.215848	1.394630	-0.350805	-0.128740	1.378313	-0.514162	-0.092212	0.980005	-0.396335	-0.079654	0.972079	-0.628402	-0.149902	1.024379	-0.375447	-0.136482	1.012999	-0.656979	-0.251359	0.999165	-0.462870	-0.243202	0.996109	-0.576306	-0.252187	1.000827	-0.519798	-0.189371	0.770026	-0.347318	-0.166112	0.715199	-0.342971	-0.106145	0.736848	-0.332982	-0.121578	0.796373	-0.334911	-0.219643	0.355792	-0.345554	-0.233306	0.316082	-0.355744	-0.174066	0.302944	-0.353999	-0.164362	0.341846	-0.348344	-0.307904	0.128076	-0.411147	-0.180001	0.034543	-0.350187	-0.152315	0.037154	-0.415386	-0.127264	0.027821	-0.409432	-0.149493	0.774425	-0.688155	-0.130089	0.716191	-0.681218	-0.068748	0.732381	-0.666357	-0.080640	0.790743	-0.672241	-0.208773	0.358405	-0.678577	-0.228121	0.322838	-0.677210	-0.171069	0.299993	-0.663601	-0.158511	0.342249	-0.667099	-0.332810	0.117944	-0.635204	-0.197386	0.039115	-0.676904	-0.168506	0.036542	-0.608769	-0.145499	0.028184	-0.611339	
754	3.7700	-0.183752	1.428926	-0.687052	-0.216613	1.399705	-0.351203	-0.129586	1.383468	-0.514167	-0.091677	0.985024	-0.396651	-0.078964	0.976838	-0.628156	-0.149050	1.029925	-0.375789	-0.135421	1.018294	-0.656814	-0.250423	1.004657	-0.463251	-0.242252	1.001384	-0.576711	-0.251295	1.006077	-0.520199	-0.189460	0.775243	-0.347196	-0.166501	0.720192	-0.342460	-0.106407	0.741549	-0.332693	-0.121539	0.801142	-0.334811	-0.220471	0.359506	-0.345037	-0.233707	0.319603	-0.355064	-0.174286	0.307069	-0.352750	-0.165001	0.346080	-0.347225	-0.305361	0.131213	-0.410417	-0.179210	0.034925	-0.350156	-0.151815	0.037334	-0.415132	-0.127236	0.027897	-0.409223	-0.149209	0.779371	-0.688570	-0.130015	0.721058	-0.681749	-0.068631	0.737001	-0.666789	-0.080313	0.795413	-0.672550	-0.209206	0.362042	-0.679171	-0.228194	0.326320	-0.677731	-0.170808	0.304082	-0.664542	-0.158723	0.346455	-0.668123	-0.330303	0.121152	-0.635268	-0.196368	0.039733	-0.676871	-0.168063	0.036653	-0.608547	-0.145424	0.028245	-0.611315	
755	3.7750	-0.184397	1.433738	-0.686573	-0.217351	1.404610	-0.351562	-0.130403	1.388471	-0.514179	-0.091182	0.989905	-0.396929	-0.078277	0.981455	-0.627876	-0.148236	1.035302	-0.376091	-0.134311	1.023426	-0.656671	-0.249485	1.010070	-0.463640	-0.241278	1.006585	-0.577132	-0.250393	1.011249	-0.520603	-0.189689	0.780383	-0.347141	-0.166964	0.725059	-0.341961	-0.106764	0.746139	-0.332345	-0.121586	0.805781	-0.334731	-0.221317	0.363057	-0.344605	-0.234113	0.322962	-0.354440	-0.174509	0.311072	-0.351519	-0.165633	0.350174	-0.346068	-0.302743	0.134308	-0.409688	-0.178394	0.035352	-0.350177	-0.151210	0.037611	-0.414844	-0.127149	0.028001	-0.408926	-0.149052	0.784272	-0.688965	-0.130071	0.725876	-0.682325	-0.068620	0.741560	-0.667349	-0.080091	0.800016	-0.672936	-0.209631	0.365519	-0.679703	-0.228252	0.329663	-0.678189	-0.170524	0.308037	-0.665498	-0.158921	0.350514	-0.669163	-0.327735	0.124282	-0.635247	-0.195336	0.040365	-0.676823	-0.167583	0.036804	-0.608335	-0.145306	0.028304	-0.611311	
756	3.7800	-0.185042	1.438370	-0.686089	-0.218055	1.409322	-0.351882	-0.131148	1.393286	-0.514205	-0.090743	0.994595	-0.397180	-0.077597	0.985907	-0.627572	-0.147472	1.040482	-0.376356	-0.133169	1.028367	-0.656557	-0.248533	1.015360	-0.464040	-0.240282	1.011682	-0.577546	-0.249476	1.016318	-0.521015	-0.189851	0.785346	-0.345669	-0.167506	0.729784	-0.341416	-0.107209	0.750589	-0.331950	-0.121714	0.810269	-0.334687	-0.222148	0.366418	-0.344247	-0.234527	0.326134	-0.353900	-0.174727	0.314925	-0.350319	-0.166256	0.354121	-0.344934	-0.300080	0.137350	-0.408968	-0.177543	0.035854	-0.350255	-0.150488	0.037999	-0.414518	-0.126995	0.028141	-0.408522	-0.149016	0.789106	-0.689331	-0.130249	0.730621	-0.682935	-0.068713	0.746027	-0.668019	-0.079966	0.804536	-0.673385	-0.210048	0.368853	-0.680191	-0.228296	0.332844	-0.678586	-0.170222	0.311829	-0.666451	-0.159107	0.354408	-0.670206	-0.325118	0.127314	-0.635167	-0.194291	0.041025	-0.676751	-0.167071	0.037011	-0.608168	-0.145138	0.028370	-0.611345	
757	3.7850	-0.185665	1.442792	-0.685616	-0.218716	1.413820	-0.352176	-0.131843	1.397892	-0.514235	-0.090362	0.999065	-0.397405	-0.076928	0.990170	-0.627254	-0.146747	1.045422	-0.376623	-0.132011	1.033098	-0.656480	-0.247595	1.020508	-0.464421	-0.239273	1.016652	-0.577945	-0.248561	1.021259	-0.521404	-0.190186	0.789974	-0.345482	-0.168126	0.734339	-0.340912	-0.107736	0.754871	-0.331516	-0.121921	0.814583	-0.334680	-0.222985	0.369553	-0.344066	-0.234898	0.329108	-0.353455	-0.174928	0.318630	-0.349162	-0.166885	0.357912	-0.343887	-0.297420	0.140329	-0.408205	-0.176642	0.036472	-0.350393	-0.149651	0.038507	-0.414152	-0.126780	0.028313	-0.408004	-0.149097	0.793845	-0.689659	-0.130541	0.735264	-0.683567	-0.068897	0.750379	-0.668794	-0.079939	0.808941	-0.673885	-0.210451	0.372022	-0.680625	-0.228316	0.335861	-0.678910	-0.169902	0.315453	-0.667387	-0.159272	0.358127	-0.671225	-0.322488	0.130245	-0.635067	-0.193232	0.041732	-0.676660	-0.166526	0.037279	-0.608075	-0.144923	0.028451	-0.611440	
758	3.7900	-0.186221	1.446995	-0.685164	-0.219318	1.418094	-0.352472	-0.132578	1.402295	-0.514245	-0.090030	1.003282	-0.397608	-0.076274	0.994228	-0.626930	-0.146085	1.050099	-0.376885	-0.130855	1.037607	-0.656433	-0.246662	1.025473	-0.464797	-0.238261	1.021473	-0.578306	-0.247644	1.026045	-0.521779	-0.190574	0.794480	-0.345478	-0.168811	0.738699	-0.340434	-0.108334	0.758949	-0.331048	-0.122202	0.818698	-0.334709	-0.223800	0.372534	-0.343927	-0.235223	0.331888	-0.353111	-0.175113	0.322171	-0.348062	-0.167513	0.361536	-0.342920	-0.294810	0.143233	-0.407398	-0.175685	0.037244	-0.350564	-0.148730	0.039132	-0.413747	-0.126511	0.028515	-0.407374	-0.149286	0.798459	-0.689941	-0.130938	0.739776	-0.684198	-0.069170	0.754592	-0.669660	-0.079997	0.813200	-0.674416	-0.210825	0.375038	-0.680992	-0.228304	0.338704	-0.679164	-0.169555	0.318886	-0.668284	-0.159410	0.361668	-0.672191	-0.319884	0.133062	-0.634981	-0.192161	0.042513	-0.676559	-0.165950	0.037615	-0.608070	-0.144655	0.028557	-0.611614	
759	3.7950	-0.186719	1.450970	-0.684739	-0.219857	1.422122	-0.352763	-0.133304	1.406472	-0.514241	-0.089738	1.007234	-0.397780	-0.075642	0.998061	-0.626604	-0.145477	1.054485	-0.377133	-0.129714	1.041880	-0.656414	-0.245762	1.030228	-0.465140	-0.237259	1.026125	-0.578629	-0.246750	1.030660	-0.522113	-0.191020	0.798813	-0.345390	-0.169553	0.742833	-0.340004	-0.109002	0.762805	-0.330554	-0.122544	0.822597	-0.334688	-0.224566	0.375316	-0.343863	-0.235495	0.334507	-0.352834	-0.175279	0.325529	-0.347023	-0.168127	0.364987	-0.342045	-0.292300	0.146033	-0.406530	-0.174673	0.038186	-0.350726	-0.147808	0.039857	-0.413279	-0.126192	0.028771	-0.406636	-0.149573	0.802913	-0.690161	-0.131432	0.744127	-0.684812	-0.069522	0.758628	-0.670591	-0.080135	0.817284	-0.674970	-0.211157	0.377880	-0.681296	-0.228247	0.341373	-0.679344	-0.169180	0.322135	-0.669135	-0.159510	0.365008	-0.673082	-0.317354	0.135753	-0.634941	-0.191085	0.043390	-0.676471	-0.165329	0.038045	-0.608172	-0.144315	0.028714	-0.611892	
760	3.8000	-0.187145	1.454695	-0.684348	-0.220334	1.425892	-0.353027	-0.134006	1.410400	-0.514224	-0.089492	1.010895	-0.397931	-0.075040	1.001656	-0.626287	-0.144920	1.058577	-0.377376	-0.128606	1.045904	-0.656411	-0.244896	1.034748	-0.465453	-0.236286	1.030587	-0.578907	-0.245883	1.035074	-0.522418	-0.191490	0.802876	-0.345402	-0.170348	0.746727	-0.339628	-0.109724	0.766422	-0.330056	-0.122947	0.826262	-0.334606	-0.225258	0.377921	-0.343832	-0.235700	0.336939	-0.352604	-0.175412	0.328697	-0.346051	-0.168713	0.368242	-0.341250	-0.289959	0.148701	-0.405608	-0.173618	0.039305	-0.350821	-0.146902	0.040687	-0.412744	-0.125815	0.029114	-0.405795	-0.149948	0.807176	-0.690308	-0.132017	0.748284	-0.685390	-0.069944	0.762464	-0.671569	-0.080344	0.821175	-0.675542	-0.211429	0.380542	-0.681537	-0.228138	0.343862	-0.679464	-0.168776	0.325182	-0.669916	-0.159562	0.368143	-0.673886	-0.314949	0.138309	-0.634983	-0.189998	0.044383	-0.676418	-0.164622	0.038599	-0.608394	-0.143872	0.028967	-0.612310	
761	3.8050	-0.187469	1.458162	-0.683997	-0.220748	1.429397	-0.353245	-0.134687	1.414069	-0.514193	-0.089283	1.014263	-0.398059	-0.074473	1.004995	-0.625981	-0.144396	1.062348	-0.377619	-0.127548	1.049672	-0.656413	-0.244087	1.039017	-0.465723	-0.235358	1.034846	-0.579145	-0.245058	1.039277	-0.522681	-0.192049	0.806591	-0.345403	-0.171182	0.750355	-0.339364	-0.110495	0.769785	-0.329561	-0.123406	0.829677	-0.334467	-0.225892	0.380405	-0.343845	-0.235829	0.339210	-0.352390	-0.175519	0.331668	-0.345164	-0.169248	0.371289	-0.340548	-0.287834	0.151202	-0.404628	-0.172530	0.040600	-0.350800	-0.146028	0.041635	-0.412135	-0.125364	0.029587	-0.404868	-0.150403	0.811217	-0.690373	-0.132683	0.752223	-0.685911	-0.070430	0.766077	-0.672577	-0.080616	0.824840	-0.676122	-0.211613	0.383011	-0.681710	-0.227961	0.346178	-0.679542	-0.168334	0.328017	-0.670617	-0.159543	0.371061	-0.674587	-0.312732	0.140730	-0.635139	-0.188901	0.045509	-0.676429	-0.163790	0.039307	-0.608748	-0.143288	0.029361	-0.612894	
